<?xml version="1.0" encoding="UTF-8"?> <svg xmlns="http://www.w3.org/2000/svg" width="32" height="67" viewBox="0 0 32 67" fill="none"><path d="M28.1071 27.4496L27.6557 27.6646L28.1071 27.4496ZM24.4061 65.7945C24.4699 66.0632 24.7394 66.2292 25.0081 66.1654L29.3862 65.1252C29.6549 65.0614 29.821 64.7919 29.7571 64.5232C29.6933 64.2545 29.4238 64.0885 29.1551 64.1523L25.2634 65.0769L24.3389 61.1852C24.275 60.9165 24.0055 60.7505 23.7368 60.8143C23.4682 60.8781 23.3021 61.1477 23.3659 61.4164L24.4061 65.7945ZM0.801313 1.1061C0.608059 1.56724 0.607975 1.56721 0.60796 1.5672C0.608049 1.56724 0.608104 1.56726 0.608281 1.56734C0.608635 1.56749 0.609268 1.56775 0.610179 1.56814C0.612 1.56891 0.614931 1.57015 0.618959 1.57186C0.627015 1.57529 0.639459 1.58061 0.656183 1.58783C0.689632 1.60228 0.740201 1.62435 0.807037 1.65413C0.940712 1.7137 1.13944 1.80411 1.39639 1.92613C1.91033 2.17019 2.65702 2.54063 3.58191 3.04355C5.43202 4.04958 7.99324 5.58472 10.83 7.69757C16.5063 11.9254 23.2675 18.4525 27.6557 27.6646L28.5585 27.2346C24.0786 17.83 17.1869 11.1853 11.4273 6.89558C8.54616 4.74965 5.94371 3.18955 4.05962 2.16504C3.11741 1.65269 2.35438 1.27403 1.82536 1.02281C1.56084 0.897194 1.35479 0.80342 1.21405 0.740708C1.14368 0.709352 1.08963 0.68576 1.05277 0.669834C1.03433 0.661871 1.0202 0.655825 1.01046 0.651683C1.00559 0.649612 1.00183 0.648017 0.999173 0.646896C0.997846 0.646336 0.996797 0.645894 0.996029 0.645571C0.995645 0.645409 0.995279 0.645256 0.995087 0.645175C0.994792 0.645051 0.994566 0.644957 0.801313 1.1061ZM27.6557 27.6646C32.0201 36.8269 31.2371 46.2515 29.3419 53.4177C28.3951 56.9979 27.1735 60.0029 26.1888 62.1121C25.6967 63.1663 25.2642 63.9956 24.9557 64.56C24.8014 64.8421 24.6782 65.058 24.594 65.2024C24.5519 65.2747 24.5196 65.3291 24.4981 65.365C24.4873 65.3829 24.4793 65.3963 24.474 65.4049C24.4714 65.4092 24.4695 65.4124 24.4683 65.4143C24.4677 65.4153 24.4672 65.416 24.467 65.4164C24.4669 65.4166 24.4668 65.4167 24.4668 65.4168C24.4668 65.4167 24.4668 65.4167 24.8925 65.6789C25.3182 65.9412 25.3184 65.9409 25.3186 65.9406C25.3187 65.9404 25.3189 65.9401 25.3192 65.9397C25.3197 65.9388 25.3203 65.9377 25.3212 65.9363C25.3229 65.9335 25.3254 65.9295 25.3285 65.9244C25.3348 65.914 25.3439 65.8989 25.3557 65.8792C25.3794 65.8398 25.4138 65.7818 25.4581 65.7058C25.5466 65.5539 25.6743 65.3302 25.8331 65.0397C26.1507 64.4587 26.5929 63.6104 27.0949 62.5351C28.0986 60.3851 29.3434 57.3234 30.3087 53.6734C32.2378 46.3791 33.0621 36.689 28.5585 27.2346L27.6557 27.6646Z" fill="#EC83DB"></path></svg> 