<?xml version="1.0" encoding="UTF-8"?> <svg xmlns="http://www.w3.org/2000/svg" width="153" height="53" viewBox="0 0 153 53" fill="none"><path d="M14.9939 22.0091C14.868 21.6043 14.9801 21.329 15.3301 21.1832C15.6802 21.0375 15.9684 21.1481 16.1947 21.5149C16.4232 22.0126 16.646 22.5175 16.8631 23.0297C16.961 23.3066 16.9098 23.542 16.7096 23.7358C16.5079 23.9167 16.2701 23.9575 15.9964 23.8584C15.3865 23.5757 14.9484 23.1352 14.6819 22.5371C14.414 21.926 14.327 21.2938 14.4212 20.6404C14.5229 20.0518 14.7428 19.5214 15.081 19.0493C15.4321 18.5757 15.8295 18.1623 16.2733 17.8089C17.1137 17.1471 18.0411 16.6128 19.0555 16.206C20.0827 15.7977 21.1236 15.5057 22.1781 15.3302C23.3056 15.1068 24.4223 15.1272 25.5281 15.3914C26.6468 15.6541 27.5876 16.2456 28.3506 17.1659C29.1939 18.326 29.4453 19.5813 29.1048 20.932C28.7644 22.2827 28.1122 23.4338 27.1483 24.3853C26.2644 25.2357 25.2601 25.897 24.1353 26.3691C23.0236 26.8397 21.8776 27.2423 20.6975 27.5767C20.3643 27.6418 20.1129 27.5663 19.9435 27.3501C19.7855 27.1194 19.7876 26.857 19.9499 26.5628C20.1952 26.1933 20.4917 25.8703 20.8396 25.5937C21.5627 25.0504 22.3728 24.7461 23.2697 24.6808C24.1651 24.6024 25.0363 24.7105 25.8835 25.0049C26.8416 25.3518 27.6463 25.9002 28.2976 26.6501C28.9488 27.4 29.4101 28.2638 29.6816 29.2415C30.2312 31.3666 30.1848 33.4957 29.5424 35.6288C28.9 37.762 27.9242 39.6784 26.6151 41.3781C24.0752 44.6635 20.8259 46.9241 16.8669 48.1597C14.8071 48.8196 12.7048 49.0585 10.5598 48.8763C8.3715 48.6598 6.60606 47.6861 5.26348 45.9551C4.70126 45.1817 4.25587 44.3423 3.9273 43.4368C3.59874 42.5313 3.35348 41.6095 3.19153 40.6714C2.87669 38.8729 2.73721 37.0604 2.77307 35.234C2.7778 35.05 2.8251 34.8937 2.91498 34.7652C3.00335 34.6238 3.14453 34.5418 3.33852 34.5191C3.49372 34.501 3.65 34.5483 3.80736 34.661C3.96321 34.7608 4.04524 34.902 4.05344 35.0846C4.05994 35.4771 4.06719 35.8761 4.07519 36.2815C4.082 38.0243 4.2828 39.7444 4.6776 41.4418C4.86325 42.246 5.13221 43.0339 5.48448 43.8056C5.83523 44.5643 6.29484 45.2448 6.86329 45.847C7.53285 46.5292 8.30984 47.0087 9.19427 47.2856C10.0916 47.561 11.0104 47.6832 11.9507 47.6521C13.8471 47.6142 15.6807 47.2625 17.4514 46.597C20.9928 45.2659 23.8549 43.0572 26.0378 39.9707C27.1034 38.4305 27.872 36.7611 28.3438 34.9625C28.6101 33.9876 28.7491 32.9882 28.7606 31.9643C28.7851 30.9389 28.6107 29.9499 28.2373 28.9971C27.5625 27.3717 26.3851 26.3818 24.705 26.0273C23.968 25.8905 23.2644 25.9268 22.594 26.1361C21.9351 26.331 21.3931 26.7417 20.9681 27.3681C20.7189 27.0301 20.4697 26.6922 20.2205 26.3542C21.339 26.0532 22.4491 25.6811 23.551 25.2378C24.6514 24.7816 25.6104 24.1256 26.4282 23.2698C27.1485 22.4779 27.6301 21.5499 27.8729 20.4859C28.1143 19.409 27.8257 18.4529 27.0072 17.6177C26.2341 16.9476 25.3312 16.568 24.2982 16.4788C23.4927 16.4287 22.6951 16.5021 21.9053 16.6992C20.0984 17.0543 18.4546 17.7968 16.9741 18.9266C16.3339 19.3946 15.9196 20.0001 15.731 20.7432C15.6584 21.1318 15.6828 21.5091 15.8042 21.8751C15.9255 22.2411 16.1664 22.508 16.5269 22.6756C16.2322 22.9591 15.944 23.2418 15.6623 23.5238C15.4323 23.0132 15.2095 22.5083 14.9939 22.0091ZM18.6636 16.7237C18.7865 16.316 19.035 16.1428 19.4092 16.204C19.7834 16.2652 19.9688 16.5058 19.9654 16.9257C19.6661 18.9663 19.3338 21.0043 18.9683 23.0395C17.6626 30.271 15.9257 37.402 13.7575 44.4326C13.5754 44.7816 13.2935 44.8931 12.9117 44.7673C12.5757 44.5837 12.4641 44.3017 12.577 43.9215C13.1744 41.964 13.7379 39.9974 14.2676 38.0216C16.1626 31.0098 17.628 23.9105 18.6636 16.7237ZM33.7168 28.7311C33.8936 28.4483 34.1203 28.3693 34.3971 28.4943C34.6724 28.6064 34.7634 28.8252 34.6703 29.1507C33.6352 31.5132 32.8514 33.9513 32.319 36.4649C32.1985 36.7804 31.9915 36.916 31.6979 36.8716C31.4043 36.8273 31.271 36.6396 31.2979 36.3088C31.8457 33.7016 32.652 31.1757 33.7168 28.7311ZM32.2275 36.6918C31.9307 36.8445 31.6896 36.8005 31.5042 36.56C31.3318 36.3179 31.3635 36.0848 31.5995 35.8606C34.8133 33.519 37.8389 30.97 40.6764 28.2136C40.8827 28.0715 41.0926 28.0732 41.3063 28.2187C41.4826 28.3816 41.5326 28.5855 41.4563 28.8304C40.6417 31.2852 40.002 33.7785 39.5373 36.3104C39.4442 36.6359 39.2444 36.7772 38.9379 36.7344C38.6443 36.69 38.5037 36.4966 38.5162 36.1543C39.0092 33.5274 39.6714 30.9462 40.5028 28.4108C40.7628 28.6164 41.0227 28.822 41.2827 29.0277C38.4467 31.7971 35.4283 34.3518 32.2275 36.6918ZM45.649 28.3213C45.3576 28.4078 45.1443 28.3212 45.0091 28.0617C44.9227 27.7703 45.0092 27.557 45.2687 27.4218C45.5397 27.2722 45.8129 27.142 46.0883 27.0312C46.7123 26.7617 47.356 26.6604 48.0192 26.7271C48.7577 26.8769 49.2986 27.2988 49.6418 27.9928C50.0016 28.8291 50.1244 29.7128 50.0102 30.6438C49.9532 31.5025 49.8566 32.3594 49.7204 33.2143C49.1938 36.789 48.0031 40.1201 46.148 43.2076C45.6978 43.955 45.1913 44.6695 44.6285 45.3514C44.0787 46.0317 43.4377 46.6047 42.7055 47.0703C42.035 47.5026 41.2915 47.7598 40.4752 47.8419C39.659 47.9241 38.975 47.6238 38.4233 46.941C37.9941 46.2963 37.8392 45.5868 37.9586 44.8126C38.0794 44.0512 38.3258 43.3539 38.6975 42.7206C39.1379 42.0006 39.6496 41.3313 40.2329 40.7126C40.8032 40.0954 41.4024 39.5011 42.0305 38.9296C44.8061 36.4295 47.9001 34.4099 51.3124 32.8711C51.6297 32.7816 51.8373 32.8754 51.9352 33.1523C52.0445 33.4149 51.9644 33.6274 51.695 33.79C51.3092 33.9661 50.9241 34.1487 50.5398 34.3378C47.4797 35.8617 44.7087 37.7845 42.2268 40.1062C41.6817 40.6024 41.1605 41.1352 40.6633 41.7045C40.1516 42.2624 39.7316 42.8751 39.4031 43.5427C39.144 44.0187 38.9853 44.5681 38.927 45.1911C38.8572 45.8285 39.0728 46.3277 39.5737 46.6887C40.1547 46.9486 40.7377 46.9461 41.3229 46.6811C41.9599 46.4101 42.533 46.0417 43.0423 45.5759C43.646 45.0204 44.1768 44.4013 44.6346 43.7186C45.1068 43.0473 45.5372 42.3547 45.9258 41.6408C47.4581 38.7089 48.4323 35.5997 48.8483 32.3132C48.9677 31.5389 49.0345 30.7642 49.0489 29.9891C49.0614 29.6468 49.0271 29.2969 48.946 28.9393C48.8634 28.5687 48.7028 28.2598 48.4642 28.0123C48.3008 27.8479 48.1191 27.7511 47.9191 27.722C47.6787 27.6845 47.4243 27.6946 47.1557 27.7521C46.6444 27.8643 46.1422 28.054 45.649 28.3213ZM45.8819 34.5276C45.7526 34.5427 45.6302 34.5045 45.5146 34.4131C45.412 34.3202 45.3539 34.2156 45.3403 34.0992C45.3071 33.8147 45.4492 33.6277 45.7664 33.5382C46.42 33.4095 46.9828 33.1209 47.4548 32.6725C47.9382 32.2097 48.3092 31.6813 48.5676 31.0875C48.8122 30.6001 48.9629 30.0385 49.0198 29.4026C49.0766 28.7667 48.8489 28.2755 48.3365 27.9289C47.8073 27.663 47.2577 27.6157 46.6878 27.7871C46.1309 27.957 45.6457 28.2365 45.2323 28.6256C44.3811 29.4197 43.8113 30.3777 43.5227 31.4994C43.4609 31.7557 43.4356 31.9881 43.4468 32.1965C43.4481 32.4324 43.4852 32.6378 43.5581 32.8128C43.6165 32.9764 43.7172 33.1088 43.8601 33.2101C44.0189 33.3358 44.2178 33.4109 44.4566 33.4355C44.7692 33.5301 44.9033 33.7242 44.8589 34.0177C44.813 34.2984 44.6318 34.431 44.3154 34.4155C43.5153 34.2991 42.955 33.8795 42.6347 33.1566C42.3964 32.4634 42.394 31.7689 42.6274 31.073C43.0463 29.6083 43.8571 28.4125 45.0599 27.4855C45.6772 27.0464 46.3818 26.7937 47.1737 26.7275C47.9771 26.6468 48.6786 26.873 49.2783 27.406C49.8353 28.0227 50.0709 28.749 49.9849 29.5849C49.9119 30.4193 49.6853 31.1733 49.3051 31.8469C48.9379 32.519 48.468 33.0983 47.8956 33.5846C47.3216 34.058 46.6504 34.3723 45.8819 34.5276ZM52.925 32.6632C52.7842 32.6927 52.6553 32.6553 52.5383 32.551C52.4212 32.4467 52.3551 32.3299 52.34 32.2005C52.3053 31.9031 52.4603 31.7146 52.8049 31.635C53.7514 31.4327 54.6983 31.178 55.6457 30.8708C56.593 30.5635 57.4807 30.1387 58.3088 29.5963C59.0425 29.1436 59.6497 28.5615 60.1303 27.8499C60.3443 27.5496 60.4253 27.2321 60.3731 26.8974C60.3161 26.7467 60.2006 26.6553 60.0264 26.6232C59.8637 26.5767 59.7104 26.5552 59.5667 26.5589C58.6508 26.5741 57.8362 26.8396 57.123 27.3554C56.4098 27.8713 55.8995 28.5536 55.5922 29.4022C55.3192 30.2075 55.2956 31.0165 55.5216 31.8291C55.6315 32.2096 55.8545 32.4916 56.1906 32.6752C56.4963 32.8231 56.8195 32.8968 57.1603 32.8963C57.9552 32.8559 58.68 32.6075 59.3346 32.1509C59.9937 31.7331 60.5848 31.238 61.1079 30.6657C61.3295 30.4301 61.5752 30.4014 61.8451 30.5796C62.0678 30.8027 62.0965 31.0485 61.9312 31.3168C61.2253 32.1202 60.3613 32.8045 59.3392 33.3695C58.33 33.933 57.2783 34.0755 56.1839 33.7968C55.4462 33.5421 54.9355 33.097 54.6515 32.4616C54.3805 31.8247 54.2796 31.1286 54.3487 30.3733C54.4179 29.618 54.6011 28.9411 54.8983 28.3427C55.4233 27.3376 56.1934 26.5791 57.2086 26.0673C57.6789 25.8289 58.1971 25.6635 58.7631 25.5712C59.3406 25.4645 59.8871 25.4859 60.4027 25.6354C60.9632 25.8322 61.304 26.225 61.4252 26.8139C61.4772 27.3715 61.3478 27.8913 61.037 28.3733C60.4565 29.2407 59.7199 29.9494 58.8272 30.4994C57.9359 31.0622 56.985 31.5075 55.9745 31.8352C54.9641 32.1629 53.9475 32.4389 52.925 32.6632ZM64.1212 27.1284C64.3443 26.9057 64.59 26.877 64.8584 27.0423C65.0811 27.2654 65.1098 27.5111 64.9445 27.7795C64.521 28.4189 64.2819 29.1219 64.2272 29.8886C64.2002 30.2195 64.2208 30.5645 64.289 30.9236C64.3701 31.2812 64.5535 31.5613 64.8394 31.7639C65.4278 32.0885 66.053 32.1662 66.715 31.9972C67.3754 31.8152 67.9439 31.5194 68.4205 31.1099C69.4536 30.1896 70.054 29.0445 70.2218 27.6747C70.2931 27.0502 70.1126 26.5142 69.6801 26.0665C69.2309 25.6994 68.7175 25.5693 68.1401 25.676C67.4812 25.8709 66.9917 26.282 66.6716 26.9093C66.3516 27.5366 66.1099 28.1613 65.9465 28.7834C65.8634 29.0815 65.67 29.222 65.3665 29.205C65.0555 29.1234 64.9084 28.9308 64.9255 28.6273C65.0507 28.1276 65.2032 27.6379 65.3832 27.158C65.5761 26.6767 65.8324 26.2338 66.1523 25.8294C66.7935 25.0336 67.6173 24.6228 68.6237 24.597C69.4551 24.6442 70.1371 24.9841 70.6698 25.6167C71.2016 26.3543 71.3831 27.1786 71.2141 28.0898C70.8976 29.8702 70.0075 31.2851 68.5438 32.3343C67.7758 32.8303 66.9403 33.0852 66.0374 33.0988C65.6045 33.0969 65.1828 33.0216 64.7722 32.8729C64.3615 32.7242 64.0115 32.4767 63.722 32.1303C63.4568 31.768 63.2913 31.3612 63.2256 30.9101C63.1583 30.446 63.1515 29.9945 63.2051 29.5557C63.3253 28.6764 63.6307 27.8673 64.1212 27.1284ZM82.7153 24.9577C82.9383 24.735 83.1841 24.7063 83.4524 24.8717C83.6751 25.0947 83.7038 25.3405 83.5385 25.6088C83.115 26.2482 82.8759 26.9512 82.8212 27.718C82.7943 28.0488 82.8149 28.3938 82.883 28.7529C82.9641 29.1105 83.1476 29.3906 83.4334 29.5932C84.0219 29.9178 84.6471 29.9956 85.309 29.8265C85.9695 29.6445 86.538 29.3488 87.0145 28.9392C88.0476 28.0189 88.648 26.8739 88.8159 25.504C88.8872 24.8796 88.7066 24.3435 88.2742 23.8958C87.8249 23.5288 87.3116 23.3986 86.7341 23.5054C86.0752 23.7003 85.5857 24.1114 85.2657 24.7386C84.9456 25.3659 84.7039 25.9906 84.5406 26.6127C84.4574 26.9108 84.264 27.0514 83.9605 27.0344C83.6495 26.9527 83.5025 26.7601 83.5195 26.4566C83.6447 25.9569 83.7973 25.4672 83.9772 24.9874C84.1701 24.506 84.4265 24.0632 84.7463 23.6588C85.3875 22.8629 86.2113 22.4521 87.2177 22.4264C88.0491 22.4735 88.7312 22.8134 89.2638 23.446C89.7957 24.1836 89.9771 25.0079 89.8082 25.9191C89.4917 27.6996 88.6015 29.1144 87.1378 30.1636C86.3698 30.6597 85.5344 30.9145 84.6314 30.9281C84.1986 30.9262 83.7769 30.8509 83.3662 30.7022C82.9556 30.5535 82.6055 30.306 82.316 29.9596C82.0508 29.5973 81.8854 29.1906 81.8196 28.7394C81.7523 28.2753 81.7455 27.8239 81.7991 27.385C81.9193 26.5058 82.2247 25.6967 82.7153 24.9577ZM98.5874 23.2621C98.6799 23.6053 98.5778 23.8531 98.281 24.0058C97.9393 24.1112 97.6914 24.0091 97.5373 23.6993C97.5024 23.6247 97.4739 23.5494 97.4519 23.4733C97.4504 23.4604 97.428 23.4368 97.3847 23.4025C97.3528 23.3538 97.3209 23.3051 97.289 23.2564C97.3193 23.2922 97.3129 23.2929 97.2696 23.2586C97.2392 23.2229 97.2167 23.1993 97.2023 23.1878C97.1734 23.165 97.1445 23.1421 97.1156 23.1193C97.159 23.1536 97.1525 23.1543 97.0962 23.1216C97.0415 23.1017 96.9867 23.0819 96.932 23.0621C96.8772 23.0423 96.8628 23.0308 96.8887 23.0278C96.9031 23.0392 96.8902 23.0407 96.8499 23.0323C96.7822 23.014 96.7145 22.9957 96.6468 22.9774C96.5677 22.9735 96.4886 22.9696 96.4095 22.9658C96.3562 22.9589 96.3498 22.9596 96.3901 22.968C96.3642 22.9711 96.3376 22.9676 96.3102 22.9577C96.168 22.9743 96.0257 22.9909 95.8834 23.0075C95.3045 23.1013 94.7376 23.2986 94.1828 23.5993C93.7284 23.8621 93.3154 24.1987 92.9438 24.6092C92.4291 25.1412 92.027 25.7387 91.7373 26.4018C91.6268 26.69 91.5687 26.9786 91.5631 27.2677C91.5689 27.5423 91.6767 27.7919 91.8865 28.0165C92.1624 28.2465 92.4989 28.3776 92.8959 28.4099C93.3059 28.4407 93.6775 28.4235 94.0108 28.3584C95.5073 28.0395 96.5955 27.198 97.2752 25.8339C97.8341 24.4447 97.6629 23.1472 96.7618 21.9414C96.3447 21.4002 95.8084 21.0171 95.1529 20.7921C94.7468 20.6822 94.333 20.6191 93.9116 20.6027C93.5031 20.5849 93.1134 20.4469 92.7424 20.1886C92.1397 19.6298 91.9486 19.0032 92.169 18.3089C92.3895 17.6146 92.7441 17.0029 93.233 16.4739C94.0576 15.5649 94.9966 14.7932 96.0499 14.159C97.3826 13.3348 98.7632 12.5838 100.192 11.9057C101.393 11.3066 102.626 10.8023 103.889 10.3926C104.217 10.2887 104.465 10.3909 104.632 10.6991C104.725 11.0422 104.616 11.2909 104.307 11.445C104.041 11.5285 103.783 11.6176 103.532 11.7125C102.064 12.2771 100.638 12.922 99.2544 13.6473C97.915 14.3018 96.6417 15.0731 95.4345 15.9613C94.9663 16.3305 94.5472 16.7269 94.1771 17.1502C93.9312 17.4018 93.7142 17.6762 93.526 17.9735C93.3721 18.2274 93.2707 18.4818 93.2218 18.7365C93.2179 18.8157 93.213 18.8293 93.2069 18.7776C93.2115 18.8164 93.216 18.8552 93.2205 18.894C93.2235 18.9199 93.2266 18.9457 93.2296 18.9716C93.2167 18.9731 93.2167 18.9731 93.2296 18.9716C93.2675 19.0721 93.3089 19.1459 93.3538 19.1931C93.5172 19.3575 93.6989 19.4543 93.8989 19.4834C94.0974 19.4995 94.3017 19.5085 94.5116 19.5102C95.359 19.5817 96.1205 19.8729 96.7963 20.384C98.1729 21.508 98.8201 22.9531 98.7379 24.7193C98.6679 25.5796 98.3861 26.3663 97.8926 27.0794C97.4104 27.778 96.801 28.3407 96.0643 28.7676C95.3176 29.2218 94.5153 29.4793 93.6571 29.5402C93.1771 29.5831 92.701 29.5469 92.2287 29.4317C91.7564 29.3164 91.3496 29.0886 91.0084 28.7482C90.4279 28.0426 90.2718 27.2677 90.5404 26.4235C90.8089 25.5794 91.2154 24.8503 91.7598 24.2361C92.6523 23.1225 93.7841 22.3743 95.1552 21.9913C95.8286 21.8079 96.4957 21.7955 97.1566 21.9543C97.8304 22.1116 98.3074 22.5476 98.5874 23.2621ZM101.426 22.7735C101.649 22.5508 101.895 22.5221 102.163 22.6874C102.386 22.9105 102.414 23.1562 102.249 23.4246C101.825 24.0639 101.586 24.767 101.532 25.5337C101.505 25.8646 101.525 26.2096 101.593 26.5687C101.675 26.9263 101.858 27.2064 102.144 27.4089C102.732 27.7335 103.358 27.8113 104.019 27.6423C104.68 27.4603 105.248 27.1645 105.725 26.7549C106.758 25.8347 107.358 24.6896 107.526 23.3198C107.598 22.6953 107.417 22.1592 106.985 21.7116C106.535 21.3445 106.022 21.2144 105.445 21.3211C104.786 21.516 104.296 21.9271 103.976 22.5544C103.656 23.1817 103.414 23.8063 103.251 24.4284C103.168 24.7265 102.974 24.8671 102.671 24.8501C102.36 24.7684 102.213 24.5758 102.23 24.2723C102.355 23.7727 102.508 23.2829 102.688 22.8031C102.881 22.3218 103.137 21.8789 103.457 21.4745C104.098 20.6786 104.922 20.2678 105.928 20.2421C106.76 20.2893 107.442 20.6291 107.974 21.2617C108.506 21.9993 108.688 22.8237 108.519 23.7348C108.202 25.5153 107.312 26.9302 105.848 27.9794C105.08 28.4754 104.245 28.7302 103.342 28.7439C102.909 28.742 102.487 28.6667 102.077 28.518C101.666 28.3693 101.316 28.1217 101.026 27.7754C100.761 27.413 100.596 27.0063 100.53 26.5552C100.463 26.0911 100.456 25.6396 100.51 25.2007C100.63 24.3215 100.935 23.5124 101.426 22.7735ZM119.432 26.6885C119.247 26.8937 119.033 26.9186 118.792 26.7632C118.587 26.5774 118.562 26.364 118.717 26.123C119.127 25.4723 119.528 24.8093 119.921 24.1342C120.358 23.3883 120.761 22.6269 121.129 21.8498C121.681 20.7366 122.253 19.6341 122.847 18.5423C123.004 18.3143 123.184 18.2342 123.389 18.3021C123.606 18.3684 123.724 18.5317 123.741 18.7919C123.696 19.7541 123.637 20.7114 123.565 21.6637C123.493 22.616 123.46 23.5702 123.467 24.5264C123.219 24.4243 122.977 24.3214 122.742 24.2177C123.752 23.4313 124.622 22.517 125.352 21.4747C125.767 20.8757 126.155 20.2667 126.515 19.6478C126.876 19.029 127.264 18.4265 127.681 17.8404C127.844 17.664 128.029 17.6227 128.237 17.7165C128.443 17.7973 128.533 17.9571 128.509 18.196C128.353 18.8827 128.217 19.5672 128.1 20.2494C128 20.969 127.92 21.6862 127.859 22.4012C127.747 23.463 127.582 24.5179 127.364 25.566C127.266 25.8527 127.084 25.9788 126.818 25.9443C126.55 25.8969 126.431 25.7207 126.461 25.4157C126.59 24.719 126.704 24.0174 126.805 23.3108C126.905 22.5913 126.984 21.8676 127.043 21.1396C127.171 20.1022 127.353 19.0781 127.589 18.0673C127.865 18.1794 128.141 18.2979 128.417 18.4229C127.989 19.0235 127.589 19.6404 127.218 20.2738C126.846 20.9071 126.452 21.5233 126.037 22.1223C125.258 23.1965 124.346 24.1419 123.301 24.9587C123.155 25.0545 123 25.0726 122.835 25.0131C122.67 24.9407 122.576 24.8139 122.555 24.6329C122.544 23.6379 122.572 22.6448 122.64 21.6537C122.706 20.6497 122.767 19.6529 122.822 18.6633C123.12 18.7464 123.411 18.8304 123.697 18.9151C123.296 19.6434 122.91 20.3768 122.538 21.1151C122.145 21.9081 121.746 22.7019 121.341 23.4965C120.747 24.5883 120.111 25.6523 119.432 26.6885ZM132.475 17.261C132.652 16.9782 132.878 16.8993 133.155 17.0243C133.443 17.1349 133.534 17.3472 133.426 17.6612C132.285 20.01 131.409 22.4521 130.801 24.9877C130.719 25.2988 130.52 25.4465 130.204 25.431C129.906 25.3479 129.764 25.1481 129.78 24.8316C130.405 22.2154 131.304 19.6919 132.475 17.261ZM139.174 16.5379C139.325 16.2581 139.551 16.1663 139.85 16.2624C140.119 16.4277 140.211 16.6594 140.128 16.9575C139.229 19.4746 138.519 22.0416 137.999 24.6587C137.893 24.9857 137.693 25.127 137.399 25.0826C137.104 25.0253 136.964 24.832 136.978 24.5026C137.513 21.792 138.246 19.1371 139.174 16.5379ZM139.632 20.1223C139.973 20.1218 140.162 20.2768 140.198 20.5872C140.211 20.7036 140.173 20.826 140.083 20.9545C140.006 21.0815 139.896 21.1468 139.752 21.1505C136.471 21.1141 133.273 21.625 130.158 22.6834C129.827 22.7615 129.605 22.6628 129.494 22.3873C129.382 22.0989 129.474 21.8784 129.771 21.7257C132.96 20.6324 136.247 20.098 139.632 20.1223ZM141.39 22.3358C141.249 22.3653 141.12 22.3279 141.003 22.2236C140.886 22.1193 140.82 22.0025 140.805 21.8731C140.77 21.5757 140.925 21.3872 141.27 21.3076C142.216 21.1053 143.163 20.8506 144.111 20.5434C145.058 20.2361 145.946 19.8113 146.774 19.2689C147.507 18.8162 148.115 18.2341 148.595 17.5225C148.809 17.2222 148.89 16.9047 148.838 16.57C148.781 16.4193 148.665 16.3279 148.491 16.2958C148.329 16.2493 148.175 16.2278 148.032 16.2315C147.116 16.2467 146.301 16.5122 145.588 17.028C144.875 17.5439 144.364 18.2262 144.057 19.0748C143.784 19.8801 143.76 20.6891 143.986 21.5017C144.096 21.8822 144.319 22.1642 144.655 22.3478C144.961 22.4957 145.284 22.5694 145.625 22.5689C146.42 22.5285 147.145 22.2801 147.799 21.8235C148.459 21.4057 149.05 20.9106 149.573 20.3383C149.794 20.1027 150.04 20.074 150.31 20.2522C150.533 20.4753 150.561 20.721 150.396 20.9894C149.69 21.7928 148.826 22.4771 147.804 23.0421C146.795 23.6056 145.743 23.7481 144.649 23.4694C143.911 23.2147 143.4 22.7696 143.116 22.1342C142.845 21.4973 142.744 20.8012 142.814 20.0459C142.883 19.2906 143.066 18.6137 143.363 18.0153C143.888 17.0102 144.658 16.2517 145.673 15.7399C146.144 15.5015 146.662 15.3361 147.228 15.2438C147.805 15.1371 148.352 15.1585 148.868 15.308C149.428 15.5048 149.769 15.8976 149.89 16.4865C149.942 17.0441 149.813 17.5639 149.502 18.0459C148.921 18.9133 148.185 19.622 147.292 20.172C146.401 20.7348 145.45 21.1801 144.439 21.5078C143.429 21.8355 142.412 22.1115 141.39 22.3358Z" fill="#EC83DB"></path></svg> 